<?xml version="1.0" encoding="UTF-8" standalone="no"?>
<!DOCTYPE svg PUBLIC "-//W3C//DTD SVG 1.1//EN"
 "http://www.w3.org/Graphics/SVG/1.1/DTD/svg11.dtd">
<!-- Generated by graphviz version 5.0.0 (20220707.1540)
 -->
<!-- Title: StorageDiagram Pages: 1 -->
<svg width="1182pt" height="279pt"
 viewBox="0.00 0.00 1181.77 279.20" xmlns="http://www.w3.org/2000/svg" xmlns:xlink="http://www.w3.org/1999/xlink">
<g id="graph0" class="graph" transform="scale(1 1) rotate(0) translate(4 275.2)">
<title>StorageDiagram</title>
<polygon fill="white" stroke="transparent" points="-4,4 -4,-275.2 1177.77,-275.2 1177.77,4 -4,4"/>
<!-- 3 -->
<g id="node1" class="node">
<title>3</title>
<polygon fill="#f2f2f2" stroke="black" points="0,-97.1 0,-270.7 527.68,-270.7 527.68,-97.1 0,-97.1"/>
<text text-anchor="middle" x="263.84" y="-254.1" font-family="Courier New" font-size="14.00">GasContract &lt;&lt;Contract&gt;&gt;</text>
<polyline fill="none" stroke="black" points="0,-245.9 527.68,-245.9 "/>
<text text-anchor="middle" x="24.8" y="-229.3" font-family="Courier New" font-size="14.00">slot</text>
<polyline fill="none" stroke="black" points="0,-221.1 49.61,-221.1 "/>
<text text-anchor="middle" x="24.8" y="-204.5" font-family="Courier New" font-size="14.00">0</text>
<polyline fill="none" stroke="black" points="0,-196.3 49.61,-196.3 "/>
<text text-anchor="middle" x="24.8" y="-179.7" font-family="Courier New" font-size="14.00">1</text>
<polyline fill="none" stroke="black" points="0,-171.5 49.61,-171.5 "/>
<text text-anchor="middle" x="24.8" y="-154.9" font-family="Courier New" font-size="14.00">2</text>
<polyline fill="none" stroke="black" points="0,-146.7 49.61,-146.7 "/>
<text text-anchor="middle" x="24.8" y="-130.1" font-family="Courier New" font-size="14.00">3&#45;7</text>
<polyline fill="none" stroke="black" points="0,-121.9 49.61,-121.9 "/>
<text text-anchor="middle" x="24.8" y="-105.3" font-family="Courier New" font-size="14.00">8</text>
<polyline fill="none" stroke="black" points="49.61,-97.1 49.61,-245.9 "/>
<text text-anchor="middle" x="288.64" y="-229.3" font-family="Courier New" font-size="14.00">type: &lt;inherited contract&gt;.variable (bytes)</text>
<polyline fill="none" stroke="black" points="49.61,-221.1 527.68,-221.1 "/>
<text text-anchor="middle" x="288.63" y="-204.5" font-family="Courier New" font-size="14.00">mapping(address=&gt;uint256): balances (32)</text>
<polyline fill="none" stroke="black" points="49.61,-196.3 527.68,-196.3 "/>
<text text-anchor="middle" x="288.33" y="-179.7" font-family="Courier New" font-size="14.00">mapping(address=&gt;uint256): whitelist (32)</text>
<polyline fill="none" stroke="black" points="49.61,-171.5 527.68,-171.5 "/>
<text text-anchor="middle" x="288.64" y="-154.9" font-family="Courier New" font-size="14.00">mapping(address=&gt;ImportantStruct): whiteListStruct (32)</text>
<polyline fill="none" stroke="black" points="49.61,-146.7 527.68,-146.7 "/>
<text text-anchor="middle" x="288.53" y="-130.1" font-family="Courier New" font-size="14.00">address[5]: administrators (160)</text>
<polyline fill="none" stroke="black" points="49.61,-121.9 527.68,-121.9 "/>
<text text-anchor="middle" x="288.23" y="-105.3" font-family="Courier New" font-size="14.00">mapping(address=&gt;bool): isAdminOrOwner (32)</text>
</g>
<!-- 1 -->
<g id="node2" class="node">
<title>1</title>
<polygon fill="#f2f2f2" stroke="black" points="563.68,-168.3 563.68,-267.5 1173.77,-267.5 1173.77,-168.3 563.68,-168.3"/>
<text text-anchor="middle" x="868.73" y="-250.9" font-family="Courier New" font-size="14.00">ImportantStruct &lt;&lt;Struct&gt;&gt;</text>
<polyline fill="none" stroke="black" points="563.68,-242.7 1173.77,-242.7 "/>
<text text-anchor="middle" x="596.88" y="-226.1" font-family="Courier New" font-size="14.00">offset</text>
<polyline fill="none" stroke="black" points="563.68,-217.9 630.09,-217.9 "/>
<text text-anchor="middle" x="596.88" y="-201.3" font-family="Courier New" font-size="14.00">0</text>
<polyline fill="none" stroke="black" points="563.68,-193.1 630.09,-193.1 "/>
<text text-anchor="middle" x="596.88" y="-176.5" font-family="Courier New" font-size="14.00">1</text>
<polyline fill="none" stroke="black" points="630.09,-168.3 630.09,-242.7 "/>
<text text-anchor="middle" x="901.93" y="-226.1" font-family="Courier New" font-size="14.00">type: variable (bytes)</text>
<polyline fill="none" stroke="black" points="630.09,-217.9 1173.77,-217.9 "/>
<text text-anchor="middle" x="705.3" y="-201.3" font-family="Courier New" font-size="14.00">unallocated (11)</text>
<polyline fill="none" stroke="black" points="780.51,-193.1 780.51,-217.9 "/>
<text text-anchor="middle" x="872.52" y="-201.3" font-family="Courier New" font-size="14.00">address: sender (20)</text>
<polyline fill="none" stroke="black" points="964.54,-193.1 964.54,-217.9 "/>
<text text-anchor="middle" x="1069.15" y="-201.3" font-family="Courier New" font-size="14.00">bool: paymentStatus (1)</text>
<polyline fill="none" stroke="black" points="630.09,-193.1 1173.77,-193.1 "/>
<text text-anchor="middle" x="901.6" y="-176.5" font-family="Courier New" font-size="14.00">uint256: amount (32)</text>
</g>
<!-- 3&#45;&gt;1 -->
<g id="edge1" class="edge">
<title>3:6&#45;&gt;1</title>
<path fill="none" stroke="black" d="M527.68,-158.9C563.01,-158.9 600.1,-162.03 636.26,-166.85"/>
<polygon fill="black" stroke="black" points="636.05,-170.35 646.44,-168.25 637.01,-163.42 636.05,-170.35"/>
</g>
<!-- 2 -->
<g id="node3" class="node">
<title>2</title>
<polygon fill="#f2f2f2" stroke="black" points="709.5,-0.5 709.5,-149.3 1027.95,-149.3 1027.95,-0.5 709.5,-0.5"/>
<text text-anchor="middle" x="868.73" y="-132.7" font-family="Courier New" font-size="14.00">address[5]: administrators &lt;&lt;Array&gt;&gt;</text>
<polyline fill="none" stroke="black" points="709.5,-124.5 1027.95,-124.5 "/>
<text text-anchor="middle" x="734.3" y="-107.9" font-family="Courier New" font-size="14.00">slot</text>
<polyline fill="none" stroke="black" points="709.5,-99.7 759.11,-99.7 "/>
<text text-anchor="middle" x="734.3" y="-83.1" font-family="Courier New" font-size="14.00">3</text>
<polyline fill="none" stroke="black" points="709.5,-74.9 759.11,-74.9 "/>
<text text-anchor="middle" x="734.3" y="-58.3" font-family="Courier New" font-size="14.00">4</text>
<polyline fill="none" stroke="black" points="709.5,-50.1 759.11,-50.1 "/>
<text text-anchor="middle" x="734.3" y="-33.5" font-family="Courier New" font-size="14.00">6</text>
<polyline fill="none" stroke="black" points="709.5,-25.3 759.11,-25.3 "/>
<text text-anchor="middle" x="734.3" y="-8.7" font-family="Courier New" font-size="14.00">7</text>
<polyline fill="none" stroke="black" points="759.11,-0.5 759.11,-124.5 "/>
<text text-anchor="middle" x="893.23" y="-107.9" font-family="Courier New" font-size="14.00">type: variable (bytes)</text>
<polyline fill="none" stroke="black" points="759.11,-99.7 1027.34,-99.7 "/>
<text text-anchor="middle" x="834.32" y="-83.1" font-family="Courier New" font-size="14.00">unallocated (12)</text>
<polyline fill="none" stroke="black" points="909.53,-74.9 909.53,-99.7 "/>
<text text-anchor="middle" x="968.44" y="-83.1" font-family="Courier New" font-size="14.00">address (20)</text>
<polyline fill="none" stroke="black" points="759.11,-74.9 1027.34,-74.9 "/>
<text text-anchor="middle" x="834.32" y="-58.3" font-family="Courier New" font-size="14.00">unallocated (12)</text>
<polyline fill="none" stroke="black" points="909.53,-50.1 909.53,-74.9 "/>
<text text-anchor="middle" x="968.44" y="-58.3" font-family="Courier New" font-size="14.00">address (20)</text>
<polyline fill="none" stroke="black" points="759.11,-50.1 1027.34,-50.1 "/>
<text text-anchor="middle" x="834.32" y="-33.5" font-family="Courier New" font-size="14.00">unallocated (12)</text>
<polyline fill="none" stroke="black" points="909.53,-25.3 909.53,-50.1 "/>
<text text-anchor="middle" x="968.44" y="-33.5" font-family="Courier New" font-size="14.00">address (20)</text>
<polyline fill="none" stroke="black" points="759.11,-25.3 1027.34,-25.3 "/>
<text text-anchor="middle" x="834.32" y="-8.7" font-family="Courier New" font-size="14.00">unallocated (12)</text>
<polyline fill="none" stroke="black" points="909.53,-0.5 909.53,-25.3 "/>
<text text-anchor="middle" x="968.44" y="-8.7" font-family="Courier New" font-size="14.00">address (20)</text>
</g>
<!-- 3&#45;&gt;2 -->
<g id="edge2" class="edge">
<title>3:11&#45;&gt;2</title>
<path fill="none" stroke="black" d="M527.68,-133.9C583.95,-133.9 644.69,-125.96 699.05,-115.91"/>
<polygon fill="black" stroke="black" points="699.95,-119.3 709.13,-114.01 698.65,-112.42 699.95,-119.3"/>
</g>
</g>
</svg>
